<svg xmlns="http://www.w3.org/2000/svg" viewBox="0 0 1100 980" font-family="'Inter', 'Segoe UI', system-ui, -apple-system, sans-serif">
  <defs>
    <linearGradient id="bgGrad" x1="0" y1="0" x2="0" y2="1">
      <stop offset="0%" stop-color="#f8fafc"/>
      <stop offset="100%" stop-color="#f1f5f9"/>
    </linearGradient>
    <linearGradient id="clientGrad" x1="0" y1="0" x2="0" y2="1">
      <stop offset="0%" stop-color="#eff6ff"/>
      <stop offset="100%" stop-color="#dbeafe"/>
    </linearGradient>
    <linearGradient id="edgeGrad" x1="0" y1="0" x2="0" y2="1">
      <stop offset="0%" stop-color="#fef3c7"/>
      <stop offset="100%" stop-color="#fde68a"/>
    </linearGradient>
    <linearGradient id="serverGrad" x1="0" y1="0" x2="0" y2="1">
      <stop offset="0%" stop-color="#ecfdf5"/>
      <stop offset="100%" stop-color="#d1fae5"/>
    </linearGradient>
    <linearGradient id="dataGrad" x1="0" y1="0" x2="0" y2="1">
      <stop offset="0%" stop-color="#f5f3ff"/>
      <stop offset="100%" stop-color="#ede9fe"/>
    </linearGradient>
    <linearGradient id="extGrad" x1="0" y1="0" x2="0" y2="1">
      <stop offset="0%" stop-color="#fff1f2"/>
      <stop offset="100%" stop-color="#ffe4e6"/>
    </linearGradient>
    <filter id="shadow" x="-2%" y="-2%" width="104%" height="104%">
      <feDropShadow dx="0" dy="1" stdDeviation="2" flood-opacity="0.08"/>
    </filter>
    <filter id="shadowLight" x="-2%" y="-2%" width="104%" height="104%">
      <feDropShadow dx="0" dy="1" stdDeviation="1" flood-opacity="0.06"/>
    </filter>
    <!-- Arrow markers -->
    <marker id="arrow" viewBox="0 0 10 7" refX="10" refY="3.5" markerWidth="8" markerHeight="6" orient="auto-start-reverse">
      <path d="M 0 0 L 10 3.5 L 0 7 z" fill="#94a3b8"/>
    </marker>
    <marker id="arrowRed" viewBox="0 0 10 7" refX="10" refY="3.5" markerWidth="8" markerHeight="6" orient="auto-start-reverse">
      <path d="M 0 0 L 10 3.5 L 0 7 z" fill="#f87171"/>
    </marker>
    <marker id="arrowPurple" viewBox="0 0 10 7" refX="10" refY="3.5" markerWidth="8" markerHeight="6" orient="auto-start-reverse">
      <path d="M 0 0 L 10 3.5 L 0 7 z" fill="#a78bfa"/>
    </marker>
  </defs>

  <!-- Background -->
  <rect width="1100" height="980" fill="url(#bgGrad)" rx="12"/>

  <!-- Title -->
  <text x="550" y="38" text-anchor="middle" font-size="20" font-weight="700" fill="#1e293b">OSA Infrastructure Architecture</text>
  <text x="550" y="56" text-anchor="middle" font-size="11" fill="#64748b">Open Science Assistant -- Actual deployed system (March 2026)</text>

  <!-- ═══════════════════════════════════════════ -->
  <!-- CLIENT LAYER  y=72..172 -->
  <!-- ═══════════════════════════════════════════ -->
  <rect x="30" y="72" width="1040" height="100" rx="10" fill="url(#clientGrad)" stroke="#93c5fd" stroke-width="1" filter="url(#shadow)"/>
  <text x="50" y="92" font-size="11" font-weight="600" fill="#1e40af" letter-spacing="1">CLIENTS</text>

  <rect x="60" y="102" width="180" height="56" rx="8" fill="white" stroke="#93c5fd" stroke-width="1" filter="url(#shadowLight)"/>
  <text x="150" y="124" text-anchor="middle" font-size="13" font-weight="600" fill="#1e3a5f">CLI (Typer + Rich)</text>
  <text x="150" y="142" text-anchor="middle" font-size="10" fill="#64748b">pip install open-science-assistant</text>

  <rect x="280" y="102" width="200" height="56" rx="8" fill="white" stroke="#93c5fd" stroke-width="1" filter="url(#shadowLight)"/>
  <text x="380" y="124" text-anchor="middle" font-size="13" font-weight="600" fill="#1e3a5f">Web Chat Widget</text>
  <text x="380" y="142" text-anchor="middle" font-size="10" fill="#64748b">osa-chat-widget.js (embedded)</text>

  <rect x="520" y="102" width="180" height="56" rx="8" fill="white" stroke="#93c5fd" stroke-width="1" filter="url(#shadowLight)"/>
  <text x="610" y="124" text-anchor="middle" font-size="13" font-weight="600" fill="#1e3a5f">REST API Clients</text>
  <text x="610" y="142" text-anchor="middle" font-size="10" fill="#64748b">curl, httpx, fetch, etc.</text>

  <rect x="740" y="102" width="310" height="56" rx="8" fill="#f0f9ff" stroke="#bfdbfe" stroke-width="1" stroke-dasharray="4,2"/>
  <text x="895" y="120" text-anchor="middle" font-size="10" font-weight="600" fill="#1e40af">Authentication</text>
  <text x="895" y="134" text-anchor="middle" font-size="9.5" fill="#475569">X-API-Key (server key) or BYOK:</text>
  <text x="895" y="148" text-anchor="middle" font-size="9.5" fill="#475569">X-OpenRouter-Key / X-OpenAI-API-Key / X-Anthropic-API-Key</text>

  <!-- ═══════════════════════════════════════════ -->
  <!-- EDGE / PROXY LAYER  y=192..282 -->
  <!-- ═══════════════════════════════════════════ -->
  <rect x="30" y="192" width="1040" height="90" rx="10" fill="url(#edgeGrad)" stroke="#fbbf24" stroke-width="1" filter="url(#shadow)"/>
  <text x="50" y="212" font-size="11" font-weight="600" fill="#92400e" letter-spacing="1">EDGE / HOSTING</text>

  <rect x="60" y="222" width="240" height="48" rx="8" fill="white" stroke="#f59e0b" stroke-width="1" filter="url(#shadowLight)"/>
  <text x="180" y="244" text-anchor="middle" font-size="13" font-weight="600" fill="#78350f">Cloudflare Pages</text>
  <text x="180" y="258" text-anchor="middle" font-size="10" fill="#64748b">demo.osc.earth (widget hosting)</text>

  <rect x="360" y="222" width="340" height="48" rx="8" fill="white" stroke="#f59e0b" stroke-width="1" filter="url(#shadowLight)"/>
  <text x="530" y="244" text-anchor="middle" font-size="13" font-weight="600" fill="#78350f">Apache Reverse Proxy (api.osc.earth)</text>
  <text x="530" y="258" text-anchor="middle" font-size="10" fill="#64748b">/osa/ -> :38528 (prod)    /osa-dev/ -> :38529 (dev)</text>

  <rect x="740" y="222" width="120" height="48" rx="8" fill="#fef9c3" stroke="#eab308" stroke-width="1"/>
  <text x="800" y="244" text-anchor="middle" font-size="11" font-weight="600" fill="#854d0e">HTTPS / TLS</text>
  <text x="800" y="258" text-anchor="middle" font-size="10" fill="#64748b">Let's Encrypt</text>

  <rect x="880" y="222" width="170" height="48" rx="8" fill="#fef9c3" stroke="#eab308" stroke-width="1"/>
  <text x="965" y="244" text-anchor="middle" font-size="11" font-weight="600" fill="#854d0e">CORS Validation</text>
  <text x="965" y="258" text-anchor="middle" font-size="10" fill="#64748b">Origin-based per community</text>

  <!-- ═══════════════════════════════════════════ -->
  <!-- SERVER LAYER  y=302..610 -->
  <!-- ═══════════════════════════════════════════ -->
  <rect x="30" y="302" width="1040" height="308" rx="10" fill="url(#serverGrad)" stroke="#6ee7b7" stroke-width="1" filter="url(#shadow)"/>
  <text x="50" y="322" font-size="11" font-weight="600" fill="#065f46" letter-spacing="1">APPLICATION SERVER (Docker Container)</text>
  <text x="940" y="322" font-size="10" fill="#065f46">ghcr.io/openscience-collective/osa</text>

  <!-- FastAPI box y=334..394 -->
  <rect x="60" y="334" width="990" height="60" rx="8" fill="white" stroke="#6ee7b7" stroke-width="1" filter="url(#shadowLight)"/>
  <text x="80" y="358" font-size="14" font-weight="700" fill="#065f46">FastAPI</text>
  <text x="80" y="378" font-size="10" fill="#64748b">Single instance, uvicorn, SSE streaming, CORS middleware, API key auth</text>
  <rect x="780" y="344" width="100" height="28" rx="6" fill="#ecfdf5" stroke="#a7f3d0" stroke-width="1"/>
  <text x="830" y="363" text-anchor="middle" font-size="10" fill="#065f46">GET /health</text>
  <rect x="890" y="344" width="140" height="28" rx="6" fill="#ecfdf5" stroke="#a7f3d0" stroke-width="1"/>
  <text x="960" y="363" text-anchor="middle" font-size="10" fill="#065f46">GET /communities</text>

  <!-- Community Routers y=406..516 -->
  <rect x="60" y="406" width="460" height="110" rx="8" fill="white" stroke="#6ee7b7" stroke-width="1" filter="url(#shadowLight)"/>
  <text x="80" y="426" font-size="12" font-weight="600" fill="#065f46">Community Routers (dynamic, from YAML registry)</text>

  <rect x="80" y="438" width="125" height="64" rx="6" fill="#f0fdf4" stroke="#86efac" stroke-width="1"/>
  <text x="142" y="458" text-anchor="middle" font-size="11" font-weight="600" fill="#166534">/hed/</text>
  <text x="142" y="472" text-anchor="middle" font-size="9" fill="#64748b">ask, chat, sessions</text>
  <text x="142" y="486" text-anchor="middle" font-size="8.5" fill="#94a3b8">config.yaml + prompt</text>
  <text x="142" y="496" text-anchor="middle" font-size="8.5" fill="#94a3b8">+ tools + extensions</text>

  <rect x="220" y="438" width="125" height="64" rx="6" fill="#f0fdf4" stroke="#86efac" stroke-width="1"/>
  <text x="282" y="458" text-anchor="middle" font-size="11" font-weight="600" fill="#166534">/eeglab/</text>
  <text x="282" y="472" text-anchor="middle" font-size="9" fill="#64748b">ask, chat, sessions</text>
  <text x="282" y="486" text-anchor="middle" font-size="8.5" fill="#94a3b8">config.yaml + prompt</text>
  <text x="282" y="496" text-anchor="middle" font-size="8.5" fill="#94a3b8">+ tools + extensions</text>

  <rect x="360" y="438" width="125" height="64" rx="6" fill="#f0fdf4" stroke="#86efac" stroke-width="1"/>
  <text x="422" y="458" text-anchor="middle" font-size="11" font-weight="600" fill="#166534">/mne/</text>
  <text x="422" y="472" text-anchor="middle" font-size="9" fill="#64748b">ask, chat, sessions</text>
  <text x="422" y="486" text-anchor="middle" font-size="8.5" fill="#94a3b8">config.yaml + prompt</text>
  <text x="422" y="496" text-anchor="middle" font-size="8.5" fill="#94a3b8">+ extensions</text>

  <text x="80" y="524" font-size="9" fill="#6b7280" font-style="italic">Each community = independent namespace. No cross-community routing.</text>

  <!-- Agent Stack y=406..516 -->
  <rect x="540" y="406" width="230" height="110" rx="8" fill="white" stroke="#6ee7b7" stroke-width="1" filter="url(#shadowLight)"/>
  <text x="560" y="426" font-size="12" font-weight="600" fill="#065f46">Agent Stack</text>
  <rect x="556" y="436" width="200" height="24" rx="4" fill="#f0fdf4" stroke="#bbf7d0" stroke-width="1"/>
  <text x="656" y="453" text-anchor="middle" font-size="10" fill="#166534">LangGraph (state machine)</text>
  <rect x="556" y="466" width="200" height="24" rx="4" fill="#f0fdf4" stroke="#bbf7d0" stroke-width="1"/>
  <text x="656" y="483" text-anchor="middle" font-size="10" fill="#166534">LiteLLM (provider abstraction)</text>
  <rect x="556" y="496" width="200" height="12" rx="3" fill="#f0fdf9" stroke="#d1fae5" stroke-width="0.5"/>
  <text x="656" y="505" text-anchor="middle" font-size="8" fill="#6b7280">Prompt caching (Anthropic)</text>

  <!-- Tool System y=406..516 -->
  <rect x="790" y="406" width="240" height="110" rx="8" fill="white" stroke="#6ee7b7" stroke-width="1" filter="url(#shadowLight)"/>
  <text x="810" y="426" font-size="12" font-weight="600" fill="#065f46">Tool System</text>
  <rect x="806" y="436" width="105" height="22" rx="4" fill="#f0fdf4" stroke="#bbf7d0" stroke-width="1"/>
  <text x="858" y="451" text-anchor="middle" font-size="9" fill="#166534">Doc Retrieval</text>
  <rect x="916" y="436" width="100" height="22" rx="4" fill="#f0fdf4" stroke="#bbf7d0" stroke-width="1"/>
  <text x="966" y="451" text-anchor="middle" font-size="9" fill="#166534">Knowledge Search</text>
  <rect x="806" y="464" width="105" height="22" rx="4" fill="#f0fdf4" stroke="#bbf7d0" stroke-width="1"/>
  <text x="858" y="479" text-anchor="middle" font-size="9" fill="#166534">HED Validation</text>
  <rect x="916" y="464" width="100" height="22" rx="4" fill="#f0fdf4" stroke="#bbf7d0" stroke-width="1"/>
  <text x="966" y="479" text-anchor="middle" font-size="9" fill="#166534">GitHub Search</text>
  <rect x="806" y="492" width="210" height="16" rx="3" fill="#f0fdf9" stroke="#d1fae5" stroke-width="0.5"/>
  <text x="911" y="503" text-anchor="middle" font-size="8" fill="#6b7280">Per-community tool config (YAML extensions)</text>

  <!-- Bottom row inside server: y=540..588 -->
  <rect x="60" y="540" width="200" height="48" rx="8" fill="white" stroke="#6ee7b7" stroke-width="1" filter="url(#shadowLight)"/>
  <text x="160" y="561" text-anchor="middle" font-size="11" font-weight="600" fill="#065f46">Session Manager</text>
  <text x="160" y="575" text-anchor="middle" font-size="9" fill="#64748b">In-memory (single instance)</text>

  <rect x="280" y="540" width="200" height="48" rx="8" fill="white" stroke="#6ee7b7" stroke-width="1" filter="url(#shadowLight)"/>
  <text x="380" y="561" text-anchor="middle" font-size="11" font-weight="600" fill="#065f46">YAML Registry</text>
  <text x="380" y="575" text-anchor="middle" font-size="9" fill="#64748b">src/assistants/*/config.yaml</text>

  <rect x="500" y="540" width="200" height="48" rx="8" fill="white" stroke="#6ee7b7" stroke-width="1" filter="url(#shadowLight)"/>
  <text x="600" y="561" text-anchor="middle" font-size="11" font-weight="600" fill="#065f46">Knowledge Sync</text>
  <text x="600" y="575" text-anchor="middle" font-size="9" fill="#64748b">GitHub Issues/PRs ingestion</text>

  <rect x="720" y="540" width="160" height="48" rx="8" fill="white" stroke="#6ee7b7" stroke-width="1" filter="url(#shadowLight)"/>
  <text x="800" y="561" text-anchor="middle" font-size="11" font-weight="600" fill="#065f46">Settings</text>
  <text x="800" y="575" text-anchor="middle" font-size="9" fill="#64748b">pydantic-settings (.env)</text>

  <rect x="900" y="540" width="130" height="48" rx="8" fill="white" stroke="#6ee7b7" stroke-width="1" filter="url(#shadowLight)"/>
  <text x="965" y="561" text-anchor="middle" font-size="11" font-weight="600" fill="#065f46">Model Selection</text>
  <text x="965" y="575" text-anchor="middle" font-size="9" fill="#64748b">BYOK > community > platform</text>

  <!-- ═══════════════════════════════════════════ -->
  <!-- ROUTING CORRIDOR y=610..665 (invisible gap for arrows) -->
  <!-- ═══════════════════════════════════════════ -->

  <!-- ═══════════════════════════════════════════ -->
  <!-- DATA LAYER  y=670..770 -->
  <!-- ═══════════════════════════════════════════ -->
  <rect x="30" y="670" width="500" height="100" rx="10" fill="url(#dataGrad)" stroke="#c4b5fd" stroke-width="1" filter="url(#shadow)"/>
  <text x="50" y="690" font-size="11" font-weight="600" fill="#5b21b6" letter-spacing="1">DATA (inside container)</text>

  <rect x="60" y="700" width="210" height="56" rx="8" fill="white" stroke="#c4b5fd" stroke-width="1" filter="url(#shadowLight)"/>
  <text x="165" y="722" text-anchor="middle" font-size="13" font-weight="600" fill="#5b21b6">SQLite + FTS5</text>
  <text x="165" y="738" text-anchor="middle" font-size="10" fill="#64748b">/app/data/knowledge/{id}.db</text>
  <text x="165" y="750" text-anchor="middle" font-size="9" fill="#94a3b8">Issues, PRs, docs (BM25 ranking)</text>

  <rect x="290" y="700" width="220" height="56" rx="8" fill="white" stroke="#c4b5fd" stroke-width="1" filter="url(#shadowLight)"/>
  <text x="400" y="722" text-anchor="middle" font-size="13" font-weight="600" fill="#5b21b6">Community Configs</text>
  <text x="400" y="738" text-anchor="middle" font-size="10" fill="#64748b">YAML configs, system prompts</text>
  <text x="400" y="750" text-anchor="middle" font-size="9" fill="#94a3b8">tools, extensions, examples</text>

  <!-- ═══════════════════════════════════════════ -->
  <!-- EXTERNAL SERVICES  y=670..770 -->
  <!-- ═══════════════════════════════════════════ -->
  <rect x="550" y="670" width="520" height="100" rx="10" fill="url(#extGrad)" stroke="#fca5a5" stroke-width="1" filter="url(#shadow)"/>
  <text x="570" y="690" font-size="11" font-weight="600" fill="#991b1b" letter-spacing="1">EXTERNAL SERVICES</text>

  <rect x="570" y="700" width="140" height="56" rx="8" fill="white" stroke="#fca5a5" stroke-width="1" filter="url(#shadowLight)"/>
  <text x="640" y="722" text-anchor="middle" font-size="12" font-weight="600" fill="#991b1b">OpenRouter</text>
  <text x="640" y="736" text-anchor="middle" font-size="9" fill="#64748b">LLM providers</text>
  <text x="640" y="748" text-anchor="middle" font-size="8.5" fill="#94a3b8">Qwen, Claude, GPT, etc.</text>

  <rect x="720" y="700" width="110" height="56" rx="8" fill="white" stroke="#fca5a5" stroke-width="1" filter="url(#shadowLight)"/>
  <text x="775" y="722" text-anchor="middle" font-size="12" font-weight="600" fill="#991b1b">LangFuse</text>
  <text x="775" y="736" text-anchor="middle" font-size="9" fill="#64748b">Observability</text>
  <text x="775" y="748" text-anchor="middle" font-size="8.5" fill="#94a3b8">Traces, cost, quality</text>

  <rect x="840" y="700" width="110" height="56" rx="8" fill="white" stroke="#fca5a5" stroke-width="1" filter="url(#shadowLight)"/>
  <text x="895" y="722" text-anchor="middle" font-size="12" font-weight="600" fill="#991b1b">GitHub API</text>
  <text x="895" y="736" text-anchor="middle" font-size="9" fill="#64748b">Issues, PRs</text>
  <text x="895" y="748" text-anchor="middle" font-size="8.5" fill="#94a3b8">Knowledge sync source</text>

  <rect x="960" y="700" width="95" height="56" rx="8" fill="white" stroke="#fca5a5" stroke-width="1" filter="url(#shadowLight)"/>
  <text x="1007" y="722" text-anchor="middle" font-size="12" font-weight="600" fill="#991b1b">hedtools.org</text>
  <text x="1007" y="736" text-anchor="middle" font-size="9" fill="#64748b">HED Validation</text>
  <text x="1007" y="748" text-anchor="middle" font-size="8.5" fill="#94a3b8">REST API</text>

  <!-- ═══════════════════════════════════════════ -->
  <!-- CI/CD bar  y=790..846 -->
  <!-- ═══════════════════════════════════════════ -->
  <rect x="30" y="790" width="1040" height="56" rx="10" fill="#f8fafc" stroke="#cbd5e1" stroke-width="1" filter="url(#shadow)"/>
  <text x="50" y="810" font-size="11" font-weight="600" fill="#475569" letter-spacing="1">CI/CD PIPELINE</text>

  <rect x="60" y="820" width="160" height="20" rx="4" fill="#e2e8f0" stroke="#cbd5e1" stroke-width="0.5"/>
  <text x="140" y="834" text-anchor="middle" font-size="9" fill="#475569">GitHub Actions (build/test)</text>
  <text x="230" y="834" font-size="10" fill="#94a3b8">-></text>
  <rect x="248" y="820" width="140" height="20" rx="4" fill="#e2e8f0" stroke="#cbd5e1" stroke-width="0.5"/>
  <text x="318" y="834" text-anchor="middle" font-size="9" fill="#475569">GHCR Docker Image</text>
  <text x="398" y="834" font-size="10" fill="#94a3b8">-></text>
  <rect x="416" y="820" width="120" height="20" rx="4" fill="#e2e8f0" stroke="#cbd5e1" stroke-width="0.5"/>
  <text x="476" y="834" text-anchor="middle" font-size="9" fill="#475569">SSH deploy script</text>
  <text x="546" y="834" font-size="10" fill="#94a3b8">-></text>
  <rect x="564" y="820" width="160" height="20" rx="4" fill="#e2e8f0" stroke="#cbd5e1" stroke-width="0.5"/>
  <text x="644" y="834" text-anchor="middle" font-size="9" fill="#475569">docker pull + restart</text>
  <rect x="770" y="817" width="130" height="24" rx="4" fill="#dbeafe" stroke="#93c5fd" stroke-width="0.5"/>
  <text x="835" y="833" text-anchor="middle" font-size="9" fill="#1e40af">develop -> :dev tag</text>
  <rect x="910" y="817" width="140" height="24" rx="4" fill="#dcfce7" stroke="#86efac" stroke-width="0.5"/>
  <text x="980" y="833" text-anchor="middle" font-size="9" fill="#166534">main -> :latest + release</text>

  <!-- ═══════════════════════════════════════════ -->
  <!-- Legend  y=864..920 -->
  <!-- ═══════════════════════════════════════════ -->
  <rect x="30" y="864" width="1040" height="56" rx="8" fill="white" stroke="#e2e8f0" stroke-width="1"/>
  <text x="50" y="882" font-size="10" font-weight="600" fill="#475569">Legend:</text>

  <line x1="100" y1="879" x2="130" y2="879" stroke="#94a3b8" stroke-width="1.5" marker-end="url(#arrow)"/>
  <text x="136" y="883" font-size="9" fill="#64748b">Direct connection</text>

  <line x1="250" y1="879" x2="280" y2="879" stroke="#f87171" stroke-width="1.2" stroke-dasharray="4,3" marker-end="url(#arrowRed)"/>
  <text x="286" y="883" font-size="9" fill="#64748b">External API call</text>

  <line x1="400" y1="879" x2="430" y2="879" stroke="#a78bfa" stroke-width="1.2" stroke-dasharray="4,3" marker-end="url(#arrowPurple)"/>
  <text x="436" y="883" font-size="9" fill="#64748b">Data read/write</text>

  <rect x="555" y="873" width="14" height="14" rx="3" fill="url(#clientGrad)" stroke="#93c5fd" stroke-width="0.5"/>
  <text x="575" y="884" font-size="9" fill="#64748b">Clients</text>
  <rect x="620" y="873" width="14" height="14" rx="3" fill="url(#edgeGrad)" stroke="#fbbf24" stroke-width="0.5"/>
  <text x="640" y="884" font-size="9" fill="#64748b">Edge</text>
  <rect x="680" y="873" width="14" height="14" rx="3" fill="url(#serverGrad)" stroke="#6ee7b7" stroke-width="0.5"/>
  <text x="700" y="884" font-size="9" fill="#64748b">Server</text>
  <rect x="750" y="873" width="14" height="14" rx="3" fill="url(#dataGrad)" stroke="#c4b5fd" stroke-width="0.5"/>
  <text x="770" y="884" font-size="9" fill="#64748b">Data</text>
  <rect x="810" y="873" width="14" height="14" rx="3" fill="url(#extGrad)" stroke="#fca5a5" stroke-width="0.5"/>
  <text x="830" y="884" font-size="9" fill="#64748b">External</text>

  <text x="50" y="908" font-size="9" fill="#94a3b8">Single-instance deployment. No inter-community routing; each community is an independent namespace with its own agent, tools, and knowledge base.</text>

  <!-- ═══════════════════════════════════════════ -->
  <!-- ARROWS - All use orthogonal (right-angle) routing -->
  <!-- ═══════════════════════════════════════════ -->

  <!-- === CLIENTS -> EDGE LAYER === -->

  <!-- CLI -> Apache (straight down, jog right) -->
  <path d="M 150,158 L 150,186 L 440,186 L 440,222"
        fill="none" stroke="#94a3b8" stroke-width="1.3" marker-end="url(#arrow)"/>
  <text x="280" y="183" font-size="8" fill="#94a3b8">HTTPS</text>

  <!-- Web Widget -> Cloudflare Pages (hosted there) -->
  <path d="M 340,158 L 340,186 L 180,186 L 180,222"
        fill="none" stroke="#94a3b8" stroke-width="1.3" marker-end="url(#arrow)"/>
  <text x="240" y="183" font-size="8" fill="#94a3b8">hosted</text>

  <!-- Web Widget -> Apache (API calls) -->
  <path d="M 420,158 L 420,186 L 530,186 L 530,222"
        fill="none" stroke="#94a3b8" stroke-width="1.3" marker-end="url(#arrow)"/>
  <text x="462" y="183" font-size="8" fill="#94a3b8">API calls</text>

  <!-- API Clients -> Apache -->
  <path d="M 610,158 L 610,186 L 580,186 L 580,222"
        fill="none" stroke="#94a3b8" stroke-width="1.3" marker-end="url(#arrow)"/>

  <!-- === EDGE -> SERVER === -->

  <!-- Apache -> FastAPI (straight down) -->
  <path d="M 530,270 L 530,334"
        fill="none" stroke="#94a3b8" stroke-width="1.5" marker-end="url(#arrow)"/>
  <text x="536" y="304" font-size="8" fill="#94a3b8">HTTP</text>

  <!-- === WITHIN SERVER (horizontal connections) === -->

  <!-- Community Routers -> Agent Stack (horizontal) -->
  <path d="M 520,461 L 540,461"
        fill="none" stroke="#94a3b8" stroke-width="1.3" marker-end="url(#arrow)"/>

  <!-- Agent Stack -> Tools (horizontal) -->
  <path d="M 770,461 L 790,461"
        fill="none" stroke="#94a3b8" stroke-width="1.3" marker-end="url(#arrow)"/>
  <text x="776" y="455" font-size="8" fill="#94a3b8">calls</text>

  <!-- === SERVER -> EXTERNAL SERVICES (orthogonal routing through corridor) === -->

  <!-- Agent Stack -> OpenRouter (LLM calls) -->
  <!-- Exit bottom of Agent Stack, go down to corridor lane 1, go right to OpenRouter, go down -->
  <path d="M 620,516 L 620,625 L 640,625 L 640,700"
        fill="none" stroke="#f87171" stroke-width="1.2" stroke-dasharray="4,3" marker-end="url(#arrowRed)"/>
  <text x="576" y="622" font-size="8.5" fill="#f87171">LLM calls</text>

  <!-- Agent Stack -> LangFuse (traces) -->
  <!-- Exit bottom of Agent Stack right side, go down to corridor lane 2, go right to LangFuse, go down -->
  <path d="M 690,516 L 690,635 L 775,635 L 775,700"
        fill="none" stroke="#f87171" stroke-width="1.2" stroke-dasharray="4,3" marker-end="url(#arrowRed)"/>
  <text x="710" y="632" font-size="8.5" fill="#f87171">traces</text>

  <!-- Tools -> hedtools.org (HED Validation) -->
  <!-- Exit bottom of Tools right side, go down to corridor lane 3, go right to HED, go down -->
  <path d="M 1007,516 L 1007,700"
        fill="none" stroke="#f87171" stroke-width="1.2" stroke-dasharray="4,3" marker-end="url(#arrowRed)"/>
  <text x="1013" y="622" font-size="8.5" fill="#f87171">validate</text>

  <!-- Tools -> GitHub API (GitHub Search tool) -->
  <!-- Exit bottom of Tools, go down to corridor lane 4, go right to GitHub API, go down -->
  <path d="M 950,516 L 950,645 L 895,645 L 895,700"
        fill="none" stroke="#f87171" stroke-width="1.2" stroke-dasharray="4,3" marker-end="url(#arrowRed)"/>
  <text x="902" y="642" font-size="8.5" fill="#f87171">search</text>

  <!-- === SERVER -> DATA LAYER (orthogonal routing through corridor) === -->

  <!-- Tools (Knowledge Search) -> SQLite -->
  <!-- Exit bottom of Tools left side, go down to corridor lane 5, go left all the way to SQLite, go down -->
  <path d="M 840,516 L 840,655 L 165,655 L 165,700"
        fill="none" stroke="#a78bfa" stroke-width="1.2" stroke-dasharray="4,3" marker-end="url(#arrowPurple)"/>
  <text x="480" y="652" font-size="8.5" fill="#a78bfa">knowledge query (FTS5)</text>

  <!-- Knowledge Sync -> SQLite -->
  <!-- Exit bottom of Knowledge Sync left side, go down to corridor lane 6, go left to SQLite, go down -->
  <path d="M 560,588 L 560,645 L 200,645 L 200,700"
        fill="none" stroke="#a78bfa" stroke-width="1.2" stroke-dasharray="4,3" marker-end="url(#arrowPurple)"/>
  <text x="300" y="642" font-size="8.5" fill="#a78bfa">write ingested data</text>

  <!-- Knowledge Sync -> GitHub API (source of ingested data) -->
  <!-- Exit bottom of Knowledge Sync right side, go down to corridor lane 7, go right to GitHub API, go down -->
  <path d="M 650,588 L 650,620 L 870,620 L 870,700"
        fill="none" stroke="#f87171" stroke-width="1.2" stroke-dasharray="4,3" marker-end="url(#arrowRed)"/>
  <text x="710" y="617" font-size="8.5" fill="#f87171">fetch issues/PRs</text>

</svg>