<svg xmlns="http://www.w3.org/2000/svg" viewBox="0 0 720 360" width="720" height="360">
  <!-- Title -->
  <text x="360" y="24" font-family="sans-serif" font-size="14" fill="#1E293B" font-weight="bold" text-anchor="middle">batch-fetch --convert output tree</text>

  <!-- Background panel -->
  <rect x="40" y="46" width="640" height="290" rx="8" fill="#F8FAFC" stroke="#CBD5E1" stroke-width="1"/>

  <!-- Tree structure -->
  <!-- papers/ root -->
  <path d="M70 78 L90 78 L94 84 L160 84 L160 102 L70 102 Z" fill="#DBEAFE" stroke="#2563EB" stroke-width="1.4"/>
  <text x="115" y="96" font-family="monospace" font-size="11" fill="#1E40AF" font-weight="bold" text-anchor="middle">papers/</text>

  <!-- vertical line under papers -->
  <line x1="86" y1="102" x2="86" y2="298" stroke="#94A3B8" stroke-width="1.2" stroke-dasharray="2,3"/>

  <!-- pdf/ folder -->
  <line x1="86" y1="124" x2="106" y2="124" stroke="#94A3B8" stroke-width="1.2"/>
  <path d="M106 116 L122 116 L126 122 L184 122 L184 138 L106 138 Z" fill="#FEF3C7" stroke="#F59E0B" stroke-width="1.4"/>
  <text x="145" y="132" font-family="monospace" font-size="11" fill="#78350F" font-weight="bold" text-anchor="middle">pdf/</text>

  <!-- pdf line under -->
  <line x1="120" y1="138" x2="120" y2="194" stroke="#94A3B8" stroke-width="1.2" stroke-dasharray="2,3"/>

  <!-- paper-A.pdf [open] -->
  <line x1="120" y1="160" x2="140" y2="160" stroke="#94A3B8" stroke-width="1.2"/>
  <rect x="140" y="150" width="120" height="20" rx="3" fill="#FFFFFF" stroke="#475569" stroke-width="1.2"/>
  <text x="148" y="164" font-family="monospace" font-size="10" fill="#1E293B">paper-A.pdf</text>
  <rect x="270" y="152" width="56" height="16" rx="8" fill="#D1FAE5" stroke="#059669" stroke-width="1.2"/>
  <text x="298" y="164" font-family="monospace" font-size="9" fill="#064E3B" font-weight="bold" text-anchor="middle">open</text>

  <!-- paper-B.pdf [paywall, struck through] -->
  <line x1="120" y1="184" x2="140" y2="184" stroke="#94A3B8" stroke-width="1.2"/>
  <rect x="140" y="174" width="120" height="20" rx="3" fill="#FFFFFF" stroke="#475569" stroke-width="1.2"/>
  <text x="148" y="188" font-family="monospace" font-size="10" fill="#475569" text-decoration="line-through">paper-B.pdf</text>
  <rect x="270" y="176" width="64" height="16" rx="8" fill="#FEE2E2" stroke="#DC2626" stroke-width="1.2"/>
  <text x="302" y="188" font-family="monospace" font-size="9" fill="#7F1D1D" font-weight="bold" text-anchor="middle">paywall</text>
  <line x1="272" y1="184" x2="332" y2="184" stroke="#DC2626" stroke-width="1.4"/>

  <!-- markdown/ folder -->
  <line x1="86" y1="220" x2="106" y2="220" stroke="#94A3B8" stroke-width="1.2"/>
  <path d="M106 212 L122 212 L126 218 L208 218 L208 234 L106 234 Z" fill="#EDE9FE" stroke="#7C3AED" stroke-width="1.4"/>
  <text x="157" y="228" font-family="monospace" font-size="11" fill="#5B21B6" font-weight="bold" text-anchor="middle">markdown/</text>

  <line x1="120" y1="234" x2="120" y2="304" stroke="#94A3B8" stroke-width="1.2" stroke-dasharray="2,3"/>

  <!-- paper-A.md -->
  <line x1="120" y1="252" x2="140" y2="252" stroke="#94A3B8" stroke-width="1.2"/>
  <rect x="140" y="244" width="120" height="18" rx="3" fill="#FFFFFF" stroke="#475569" stroke-width="1.2"/>
  <text x="148" y="257" font-family="monospace" font-size="10" fill="#1E293B">paper-A.md</text>

  <!-- paper-B.md -->
  <line x1="120" y1="274" x2="140" y2="274" stroke="#94A3B8" stroke-width="1.2"/>
  <rect x="140" y="266" width="120" height="18" rx="3" fill="#FFFFFF" stroke="#475569" stroke-width="1.2"/>
  <text x="148" y="279" font-family="monospace" font-size="10" fill="#1E293B">paper-B.md</text>
  <text x="270" y="279" font-family="sans-serif" font-size="10" fill="#059669" font-style="italic">always present</text>

  <!-- img/ folder -->
  <line x1="120" y1="296" x2="140" y2="296" stroke="#94A3B8" stroke-width="1.2"/>
  <path d="M140 288 L156 288 L160 294 L208 294 L208 304 L140 304 Z" fill="#EDE9FE" stroke="#7C3AED" stroke-width="1.2"/>
  <text x="174" y="301" font-family="monospace" font-size="10" fill="#5B21B6" font-weight="bold" text-anchor="middle">img/</text>

  <line x1="156" y1="304" x2="156" y2="320" stroke="#94A3B8" stroke-width="1.2" stroke-dasharray="2,3"/>
  <line x1="156" y1="318" x2="176" y2="318" stroke="#94A3B8" stroke-width="1.2"/>
  <path d="M176 312 L192 312 L196 316 L260 316 L260 324 L176 324 Z" fill="#FFFFFF" stroke="#7C3AED" stroke-width="1.2"/>
  <text x="218" y="321" font-family="monospace" font-size="9" fill="#5B21B6" text-anchor="middle">paper-A/</text>

  <!-- Right side annotations -->
  <rect x="380" y="94" width="280" height="60" rx="6" fill="#FFFFFF" stroke="#2563EB" stroke-width="1.4"/>
  <text x="392" y="112" font-family="sans-serif" font-size="11" fill="#1E40AF" font-weight="bold">Two parallel structures</text>
  <text x="392" y="128" font-family="sans-serif" font-size="10" fill="#475569">PDFs may be blocked, but markdown</text>
  <text x="392" y="142" font-family="sans-serif" font-size="10" fill="#475569">conversions are always available.</text>

  <rect x="380" y="170" width="280" height="60" rx="6" fill="#FFFFFF" stroke="#059669" stroke-width="1.4"/>
  <text x="392" y="188" font-family="sans-serif" font-size="11" fill="#064E3B" font-weight="bold">Open badge</text>
  <text x="392" y="204" font-family="sans-serif" font-size="10" fill="#475569">PDF retrieved successfully and</text>
  <text x="392" y="218" font-family="sans-serif" font-size="10" fill="#475569">stored under pdf/.</text>

  <rect x="380" y="246" width="280" height="60" rx="6" fill="#FFFFFF" stroke="#DC2626" stroke-width="1.4"/>
  <text x="392" y="264" font-family="sans-serif" font-size="11" fill="#7F1D1D" font-weight="bold">Paywall badge</text>
  <text x="392" y="280" font-family="sans-serif" font-size="10" fill="#475569">PDF blocked; markdown still made</text>
  <text x="392" y="294" font-family="sans-serif" font-size="10" fill="#475569">via abstract/metadata.</text>
</svg>
