<svg xmlns="http://www.w3.org/2000/svg" viewBox="0 0 960 340" width="960" height="340">
  <text x="480" y="26" font-family="sans-serif" font-size="15" fill="#1E293B" font-weight="bold" text-anchor="middle">/grant:grant-review boomerang -- findings cycle into the right stage</text>

  <!-- Pipeline track -->
  <g>
    <!-- 5 stage circles, smaller -->
    <circle cx="120" cy="190" r="36" fill="#DBEAFE" stroke="#2563EB" stroke-width="1.8"/>
    <text x="120" y="195" font-family="sans-serif" font-size="11" fill="#1E40AF" font-weight="bold" text-anchor="middle">NOFO</text>

    <circle cx="270" cy="190" r="36" fill="#FEF3C7" stroke="#F59E0B" stroke-width="1.8"/>
    <text x="270" y="195" font-family="sans-serif" font-size="11" fill="#7C2D12" font-weight="bold" text-anchor="middle">Aims</text>

    <circle cx="420" cy="190" r="36" fill="#EDE9FE" stroke="#7C3AED" stroke-width="1.8"/>
    <text x="420" y="195" font-family="sans-serif" font-size="11" fill="#5B21B6" font-weight="bold" text-anchor="middle">Strategy</text>

    <circle cx="570" cy="190" r="36" fill="#FEE2E2" stroke="#DC2626" stroke-width="1.8"/>
    <text x="570" y="195" font-family="sans-serif" font-size="11" fill="#991B1B" font-weight="bold" text-anchor="middle">Review</text>

    <circle cx="720" cy="190" r="36" fill="#D1FAE5" stroke="#059669" stroke-width="1.8"/>
    <text x="720" y="195" font-family="sans-serif" font-size="11" fill="#065F46" font-weight="bold" text-anchor="middle">Fig QA</text>

    <path d="M156 190 L234 190" fill="none" stroke="#475569" stroke-width="2"/>
    <polygon points="234,190 226,186 226,194" fill="#475569"/>
    <path d="M306 190 L384 190" fill="none" stroke="#475569" stroke-width="2"/>
    <polygon points="384,190 376,186 376,194" fill="#475569"/>
    <path d="M456 190 L534 190" fill="none" stroke="#475569" stroke-width="2"/>
    <polygon points="534,190 526,186 526,194" fill="#475569"/>
    <path d="M606 190 L684 190" fill="none" stroke="#475569" stroke-width="2"/>
    <polygon points="684,190 676,186 676,194" fill="#475569"/>
  </g>

  <!-- Critical: cycles back to Aims -->
  <g>
    <path d="M570 154 C 570 70, 270 70, 270 154" fill="none" stroke="#DC2626" stroke-width="2.4" stroke-dasharray="6,5" stroke-linecap="round"/>
    <polygon points="270,154 280,144 260,144" fill="#DC2626"/>
    <rect x="356" y="58" width="170" height="20" rx="5" fill="#FEE2E2" stroke="#DC2626" stroke-width="1.2"/>
    <text x="441" y="72" font-family="sans-serif" font-size="11" fill="#991B1B" font-weight="bold" text-anchor="middle">critical: revise the Aims</text>
  </g>

  <!-- Major: cycles back to Strategy -->
  <g>
    <path d="M570 226 C 570 286, 420 286, 420 226" fill="none" stroke="#B45309" stroke-width="2.4" stroke-dasharray="6,5" stroke-linecap="round"/>
    <polygon points="420,226 430,236 410,236" fill="#B45309"/>
    <rect x="436" y="278" width="190" height="20" rx="5" fill="#FEF3C7" stroke="#B45309" stroke-width="1.2"/>
    <text x="531" y="292" font-family="sans-serif" font-size="11" fill="#7C2D12" font-weight="bold" text-anchor="middle">major: tighten the Approach</text>
  </g>

  <!-- Minor: in-place edit -->
  <g>
    <rect x="780" y="160" width="160" height="60" rx="6" fill="#ECFDF5" stroke="#059669" stroke-width="1.4"/>
    <text x="860" y="180" font-family="sans-serif" font-size="11" fill="#065F46" font-weight="bold" text-anchor="middle">minor</text>
    <text x="860" y="196" font-family="sans-serif" font-size="11" fill="#065F46" text-anchor="middle">edit in place,</text>
    <text x="860" y="210" font-family="sans-serif" font-size="11" fill="#065F46" text-anchor="middle">no cycle needed</text>
  </g>

  <text x="480" y="324" font-family="sans-serif" font-size="11" fill="#64748B" font-style="italic" text-anchor="middle">Severity tags the entry point: critical findings cycle to Aims, major to Strategy, minor stays in-place.</text>
</svg>
