<svg xmlns="http://www.w3.org/2000/svg" viewBox="0 0 960 340" width="960" height="340">
  <text x="480" y="26" font-family="sans-serif" font-size="15" fill="#1E293B" font-weight="bold" text-anchor="middle">Step 0 -- parse the NOFO into a scope contract</text>

  <!-- Left: NOFO page -->
  <g>
    <rect x="60" y="60" width="290" height="240" rx="8" fill="#FFFFFF" stroke="#2563EB" stroke-width="2"/>
    <!-- folded corner -->
    <path d="M330 60 L350 80 L330 80 Z" fill="#DBEAFE" stroke="#2563EB" stroke-width="1.5"/>
    <text x="205" y="92" font-family="sans-serif" font-size="14" fill="#1E40AF" font-weight="bold" text-anchor="middle">NOFO / FOA</text>
    <text x="205" y="108" font-family="monospace" font-size="10" fill="#475569" text-anchor="middle">PAR-25-XXX</text>

    <!-- title bar -->
    <line x1="76" y1="124" x2="334" y2="124" stroke="#CBD5E1" stroke-width="1"/>

    <!-- lines simulating dense agency text -->
    <g fill="#94A3B8">
      <rect x="76" y="134" width="258" height="3" rx="1"/>
      <rect x="76" y="142" width="240" height="3" rx="1"/>
      <rect x="76" y="150" width="252" height="3" rx="1"/>
      <rect x="76" y="158" width="228" height="3" rx="1"/>
      <rect x="76" y="166" width="248" height="3" rx="1"/>
      <rect x="76" y="174" width="232" height="3" rx="1"/>
      <rect x="76" y="182" width="244" height="3" rx="1"/>
      <rect x="76" y="190" width="218" height="3" rx="1"/>
      <rect x="76" y="198" width="252" height="3" rx="1"/>
      <rect x="76" y="206" width="234" height="3" rx="1"/>
      <rect x="76" y="214" width="248" height="3" rx="1"/>
      <rect x="76" y="222" width="220" height="3" rx="1"/>
      <rect x="76" y="230" width="244" height="3" rx="1"/>
      <rect x="76" y="238" width="226" height="3" rx="1"/>
      <rect x="76" y="246" width="252" height="3" rx="1"/>
      <rect x="76" y="254" width="232" height="3" rx="1"/>
      <rect x="76" y="262" width="248" height="3" rx="1"/>
      <rect x="76" y="270" width="222" height="3" rx="1"/>
      <rect x="76" y="278" width="240" height="3" rx="1"/>
      <rect x="76" y="286" width="208" height="3" rx="1"/>
    </g>

    <!-- highlighters over selected lines -->
    <rect x="74" y="146" width="220" height="11" rx="2" fill="#FDE68A" opacity="0.55"/>
    <rect x="74" y="186" width="232" height="11" rx="2" fill="#FDE68A" opacity="0.55"/>
    <rect x="74" y="226" width="208" height="11" rx="2" fill="#FDE68A" opacity="0.55"/>
    <rect x="74" y="266" width="240" height="11" rx="2" fill="#FDE68A" opacity="0.55"/>
  </g>

  <!-- Arrow -->
  <g>
    <path d="M364 180 L426 180" fill="none" stroke="#475569" stroke-width="2.4"/>
    <polygon points="426,180 416,175 416,185" fill="#475569"/>
    <text x="395" y="170" font-family="monospace" font-size="11" fill="#475569" text-anchor="middle">parse</text>
  </g>

  <!-- Right: NOFO.md extracted facts -->
  <g>
    <rect x="440" y="60" width="460" height="240" rx="8" fill="#FEF3C7" stroke="#B45309" stroke-width="2"/>
    <text x="460" y="86" font-family="monospace" font-size="13" fill="#7C2D12" font-weight="bold">NOFO.md</text>
    <line x1="460" y1="94" x2="540" y2="94" stroke="#B45309" stroke-width="1.4"/>

    <g font-family="monospace" font-size="11.5" fill="#7C2D12">
      <text x="460" y="118">mechanism: R21</text>
      <text x="460" y="138">agency: NIH / NIMH</text>
      <text x="460" y="158">deadline: 2026-06-16 (next: 2026-10-16)</text>
      <text x="460" y="178">page_limits:</text>
      <text x="478" y="194">aims: 1 / strategy: 6</text>
      <text x="460" y="214">budget_cap: $275K / 2yr total</text>
      <text x="460" y="234">required_areas: [naturalistic stimuli,</text>
      <text x="478" y="250">developmental cohorts]</text>
      <text x="460" y="270">special: data_sharing_plan, HSP</text>
      <text x="460" y="290">eligible_PIs: any career stage</text>
    </g>
  </g>

  <text x="480" y="326" font-family="sans-serif" font-size="11" fill="#64748B" font-style="italic" text-anchor="middle">The NOFO is the contract. Every aim, methods choice, and budget line must point back to one of these extracted requirements.</text>
</svg>
