<svg xmlns="http://www.w3.org/2000/svg" viewBox="0 0 200 200" width="200" height="200">
  <!-- Claude's face from the CLI welcome screen -->
  <!-- Recreating the block character art style -->

  <!-- Top row: ▐▛███▜▌ -->
  <rect x="68" y="60" width="8" height="20" fill="#D4A574" opacity="0.5"/>
  <rect x="76" y="55" width="8" height="25" fill="#D4A574"/>
  <rect x="84" y="55" width="8" height="25" fill="#D4A574"/>
  <rect x="92" y="55" width="8" height="25" fill="#D4A574"/>
  <rect x="100" y="55" width="8" height="25" fill="#D4A574"/>
  <rect x="108" y="55" width="8" height="25" fill="#D4A574"/>
  <rect x="116" y="60" width="8" height="20" fill="#D4A574" opacity="0.5"/>

  <!-- Middle row: ▝▜█████▛▘ (wider) -->
  <rect x="64" y="80" width="8" height="10" fill="#D4A574" opacity="0.3"/>
  <rect x="72" y="80" width="8" height="25" fill="#D4A574"/>
  <rect x="80" y="80" width="8" height="25" fill="#D4A574"/>
  <rect x="88" y="80" width="8" height="25" fill="#D4A574"/>
  <rect x="96" y="80" width="8" height="25" fill="#D4A574"/>
  <rect x="104" y="80" width="8" height="25" fill="#D4A574"/>
  <rect x="112" y="80" width="8" height="25" fill="#D4A574"/>
  <rect x="120" y="80" width="8" height="25" fill="#D4A574"/>
  <rect x="128" y="80" width="8" height="10" fill="#D4A574" opacity="0.3"/>

  <!-- Eyes: ▘▘ ▝▝ -->
  <!-- Left eye (open) -->
  <circle cx="85" cy="115" r="4" fill="#1E293B">
    <animate attributeName="r" values="4;4;4;0.5;4;4;4;4;4;4;4;4" dur="4s" repeatCount="indefinite"/>
  </circle>
  <!-- Right eye (winks) -->
  <circle cx="107" cy="115" r="4" fill="#1E293B">
    <animate attributeName="r" values="4;4;4;0.5;4;4;4;4;4;4;4;4" dur="4s" repeatCount="indefinite" begin="0s"/>
  </circle>
  <!-- Right eye wink line (appears during wink) -->
  <line x1="103" y1="115" x2="111" y2="115" stroke="#1E293B" stroke-width="2" stroke-linecap="round" opacity="0">
    <animate attributeName="opacity" values="0;0;0;1;0;0;0;0;0;0;0;0" dur="4s" repeatCount="indefinite"/>
  </line>
  <!-- Left eye wink line -->
  <line x1="81" y1="115" x2="89" y2="115" stroke="#1E293B" stroke-width="2" stroke-linecap="round" opacity="0">
    <animate attributeName="opacity" values="0;0;0;1;0;0;0;0;0;0;0;0" dur="4s" repeatCount="indefinite"/>
  </line>

  <!-- Subtle smile -->
  <path d="M88 125 Q96 132 104 125" fill="none" stroke="#1E293B" stroke-width="2" stroke-linecap="round" opacity="0.6"/>

  <!-- Name below -->
  <text x="100" y="155" font-family="monospace" font-size="14" fill="#D4A574" text-anchor="middle" font-weight="bold">Claude</text>
</svg>
